HIERARCHY
ROOT Hips
{
	OFFSET	0.00	0.00	0.00
	CHANNELS 6 Xposition Yposition Zposition Zrotation Xrotation Yrotation
	JOINT LeftUpLeg
	{
		OFFSET	 0.126116	-0.014019	-0.065224
		CHANNELS 3 Zrotation Xrotation Yrotation
		JOINT LeftLeg
		{
			OFFSET	 0.000000	 0.000000	 0.569914
			CHANNELS 3 Zrotation Xrotation Yrotation
			JOINT LeftFoot
			{
				OFFSET	 0.000000	 0.000000	 0.544423
				CHANNELS 3 Zrotation Xrotation Yrotation
				JOINT LeftToeBase
				{
					OFFSET	 0.000000	 0.000000	 0.207117
					CHANNELS 3 Zrotation Xrotation Yrotation
					End Site
					{
						OFFSET	 0.000000	 0.000000	 0.207117
					}
				}
			}
		}
	}
	JOINT RightUpLeg
	{
		OFFSET	-0.124023	-0.008373	-0.065224
		CHANNELS 3 Zrotation Xrotation Yrotation
		JOINT RightLeg
		{
			OFFSET	 0.000000	 0.000000	 0.570047
			CHANNELS 3 Zrotation Xrotation Yrotation
			JOINT RightFoot
			{
				OFFSET	 0.000000	 0.000000	 0.544354
				CHANNELS 3 Zrotation Xrotation Yrotation
				JOINT RightToeBase
				{
					OFFSET	 0.000000	 0.000000	 0.207540
					CHANNELS 3 Zrotation Xrotation Yrotation
					End Site
					{
						OFFSET	 0.000000	 0.000000	 0.207540
					}
				}
			}
		}
	}
	JOINT Spine
	{
		OFFSET	 0.000184	-0.007763	 0.117403
		CHANNELS 3 Zrotation Xrotation Yrotation
		JOINT Spine1
		{
			OFFSET	 0.000000	 0.000000	 0.137269
			CHANNELS 3 Zrotation Xrotation Yrotation
			JOINT Spine2
			{
				OFFSET	 0.000000	 0.000000	 0.156879
				CHANNELS 3 Zrotation Xrotation Yrotation
				JOINT LeftShoulder
				{
					OFFSET	 0.080501	-0.002496	 0.160144
					CHANNELS 3 Zrotation Xrotation Yrotation
					JOINT LeftArm
					{
						OFFSET	 0.000000	 0.000000	 0.164363
						CHANNELS 3 Zrotation Xrotation Yrotation
						JOINT LeftForeArm
						{
							OFFSET	 0.000000	 0.000000	 0.364576
							CHANNELS 3 Zrotation Xrotation Yrotation
							JOINT LeftHand
							{
								OFFSET	 0.000000	 0.000000	 0.360812
								CHANNELS 3 Zrotation Xrotation Yrotation
								JOINT LeftHandIndex1
								{
									OFFSET	 0.000000	 0.000000	 0.086006
									CHANNELS 3 Zrotation Xrotation Yrotation
									JOINT LeftHandIndex2
									{
										OFFSET	 0.000000	 0.000000	 0.047236
										CHANNELS 3 Zrotation Xrotation Yrotation
										JOINT LeftHandIndex3
										{
											OFFSET	-0.004284	-0.000551	 0.038166
											CHANNELS 3 Zrotation Xrotation Yrotation
											End Site
											{
												OFFSET	-0.004284	-0.000551	 0.038166
											}
										}
									}
								}
							}
						}
					}
				}
				JOINT Neck
				{
					OFFSET	 0.000000	 0.000000	 0.176489
					CHANNELS 3 Zrotation Xrotation Yrotation
					JOINT Head
					{
						OFFSET	 0.000000	-0.001747	 0.077940
						CHANNELS 3 Zrotation Xrotation Yrotation
						End Site
						{
							OFFSET	 0.000000	-0.001747	 0.077940
						}
					}
				}
				JOINT RightShoulder
				{
					OFFSET	-0.080363	 0.000306	 0.159706
					CHANNELS 3 Zrotation Xrotation Yrotation
					JOINT RightArm
					{
						OFFSET	 0.000000	 0.000000	 0.164196
						CHANNELS 3 Zrotation Xrotation Yrotation
						JOINT RightForeArm
						{
							OFFSET	 0.000000	 0.000000	 0.365611
							CHANNELS 3 Zrotation Xrotation Yrotation
							JOINT RightHand
							{
								OFFSET	 0.000000	 0.000000	 0.360648
								CHANNELS 3 Zrotation Xrotation Yrotation
								JOINT RightHandIndex1
								{
									OFFSET	 0.000000	 0.000000	 0.069977
									CHANNELS 3 Zrotation Xrotation Yrotation
									JOINT RightHandIndex2
									{
										OFFSET	 0.000000	 0.000000	 0.052305
										CHANNELS 3 Zrotation Xrotation Yrotation
										JOINT RightHandIndex3
										{
											OFFSET	 0.009002	-0.000782	 0.042196
											CHANNELS 3 Zrotation Xrotation Yrotation
											End Site
											{
												OFFSET	 0.009002	-0.000782	 0.042196
											}
										}
									}
								}
							}
						}
					}
				}
			}
		}
	}
}
MOTION
Frames:    8
Frame Time: 0.03333334
 2.654418	 6.750709	-0.926821	-79.757920	-1.951073	-0.229158	 6.191797	-0.362592	-177.967100	-2.800675	-34.016950	 1.034024	 110.646100	 89.965740	-109.919000	-2.376544	 30.354990	-0.041661	 1.824948	-31.219800	 179.606900	 17.142080	-69.464070	 20.460000	-178.463500	 88.780670	-174.047500	 2.377868	 29.814610	 0.031149	 15.194290	 4.326578	 1.653275	-1.404258	-1.989771	 1.002052	-0.277012	-4.732256	-0.029680	-91.785520	 78.341390	 178.845200	 35.409800	 62.910410	-48.089930	 4.571348	-18.528340	-45.658150	 20.470800	-32.197630	 4.305519	-3.812334	 37.924440	-2.927599	-2.450526	 36.184240	 0.754587	-1.378229	 35.397820	-2.634230	-0.336374	 4.097428	-2.125017	 0.440187	-12.005650	-1.324162	 89.788390	 78.487480	 179.489000	-41.725530	 71.421880	 43.345350	-12.843740	-20.747710	 40.721020	-27.379280	-34.387710	 0.203559	 6.437017	 35.671460	-0.771858	 2.830251	 35.756010	-7.813440	-2.350882	 35.473990	 5.254307
 2.590762	 6.735658	-0.929707	-79.506680	-1.430500	-0.789637	 6.043185	 5.459773	-177.042600	-3.394452	-27.811310	 0.975201	 9.901495	 89.420550	-9.219053	-2.371661	 31.231020	-0.061258	 2.160008	-34.081700	 179.758400	 10.885440	-59.557870	 13.420310	-166.469800	 89.247750	 174.405000	 2.381556	 29.065300	 0.014700	 8.782265	 4.144846	 2.317985	-1.545026	-2.091205	 0.948729	-0.321717	-4.828273	-0.034739	-91.763180	 78.763080	 178.758500	 34.767350	 61.464520	-49.441690	 5.174960	-20.993600	-48.943960	 24.022790	-34.105710	 7.011174	-3.812334	 37.924440	-2.927599	-2.450526	 36.184240	 0.754587	-1.378229	 35.397820	-2.634230	-0.363784	 4.284220	-2.642293	 0.534594	-12.380650	-1.188151	 89.778920	 78.069630	 179.447900	-41.591860	 71.627950	 42.520100	-13.552880	-22.832220	 42.863760	-30.647800	-36.521890	-2.561436	 6.437017	 35.671460	-0.771858	 2.830251	 35.756010	-7.813440	-2.350882	 35.473990	 5.254307
 2.521248	 6.720787	-0.932279	-79.287510	-0.794169	-1.064252	 7.463640	 14.242830	-176.835000	-3.881807	-15.912710	 1.472821	 3.932517	 85.680440	-1.297656	-2.355182	 33.772740	-0.119701	 2.741766	-35.433000	 179.716600	 7.078381	-48.539990	 8.901222	-145.067500	 89.593140	 153.221300	 2.388242	 27.540770	-0.018244	 1.886076	 3.744745	 2.629142	-1.501943	-2.250736	 0.973808	-0.260982	-4.861080	-0.028255	-91.754330	 78.917430	 178.745500	 34.340370	 60.503100	-50.520020	 5.601580	-22.951990	-51.111990	 27.246600	-34.464190	 9.197922	-3.812334	 37.924440	-2.927599	-2.450526	 36.184240	 0.754587	-1.378229	 35.397820	-2.634230	-0.238040	 4.405136	-3.034775	 0.636923	-12.548200	-1.123276	 89.775540	 77.916700	 179.457100	-41.407910	 71.976030	 42.107030	-14.547850	-24.289990	 43.527600	-34.193320	-37.091380	-4.909869	 6.437017	 35.671460	-0.771858	 2.830251	 35.756010	-7.813440	-2.350882	 35.473990	 5.254307
 2.451912	 6.708039	-0.935569	-78.805050	-0.825550	-1.290584	 8.281319	 19.802350	-177.126200	-3.877877	-11.616220	 1.597783	 3.807737	 84.146430	 0.164942	-2.319129	 38.016140	-0.223672	 3.262881	-35.776620	 179.769200	 3.894548	-40.221000	 5.654121	-166.911000	 89.279910	 174.142200	 2.375045	 30.351520	 0.043050	-5.215447	 3.666840	 2.697433	-1.474480	-2.327656	 1.020039	-0.142294	-4.835766	-0.015374	-91.754140	 78.911460	 178.712100	 34.614620	 60.259280	-51.764440	 6.209810	-24.288690	-51.769490	 29.975030	-33.240980	 10.334240	-3.812334	 37.924440	-2.927599	-2.450526	 36.184240	 0.754587	-1.378229	 35.397820	-2.634230	-0.115909	 4.304761	-3.243086	 0.802161	-12.375000	-0.881173	 89.774650	 77.919120	 179.380000	-41.089100	 72.460620	 41.922980	-15.935970	-24.925320	 42.657130	-37.597110	-36.042010	-6.282841	 6.437017	 35.671460	-0.771858	 2.830251	 35.756010	-7.813440	-2.350882	 35.473990	 5.254307
 2.373089	 6.695944	-0.938165	-78.110120	-0.964125	-1.252463	 8.482600	 23.704030	-178.519900	-2.773180	-11.591100	 1.772838	 5.001762	 82.877040	-0.110930	-2.266677	 42.534140	-0.345780	 3.074576	-34.747810	 179.459200	 2.973349	-37.315830	 4.578564	 176.786800	 89.250620	-170.180900	 2.368957	 31.429010	 0.067212	-12.544410	 3.715421	 2.332085	-1.520022	-2.262820	 0.957429	-0.072088	-4.720814	-0.007716	-91.761940	 78.765970	 178.656700	 35.653300	 60.784760	-52.843210	 7.322718	-24.909610	-50.720720	 32.224220	-30.487390	 10.205710	-3.812334	 37.924440	-2.927599	-2.450526	 36.184240	 0.754587	-1.378229	 35.397820	-2.634230	-0.108784	 4.164993	-3.233424	 0.923387	-11.992950	-0.408657	 89.777930	 78.064320	 179.295800	-39.874350	 73.143190	 40.664720	-17.192610	-25.017190	 41.225720	-40.511500	-33.432860	-6.438833	 6.437017	 35.671460	-0.771858	 2.830251	 35.756010	-7.813440	-2.350882	 35.473990	 5.254307
 2.290535	 6.685160	-0.941001	-77.539710	-1.218505	-1.067804	 9.048927	 27.350980	 179.583300	-1.600789	-11.560460	 1.965196	 5.756864	 79.078540	 0.324027	-2.184567	 47.662410	-0.504107	 2.646238	-33.129650	 178.742100	 4.866956	-39.438350	 5.875899	 7.253258	 88.659290	 0.302658	 2.380935	 29.196080	 0.017564	-18.896220	 3.108366	 1.957050	-1.438119	-2.104501	 0.794742	 0.028075	-4.445568	 0.002941	-91.764900	 78.707510	 178.590500	 36.909200	 61.981000	-52.890350	 8.591940	-24.688660	-48.442370	 33.716190	-26.770400	 8.941321	-3.812334	 37.924440	-2.927599	-2.450526	 36.184240	 0.754587	-1.378229	 35.397820	-2.634230	-0.032543	 4.313582	-3.272653	 1.031610	-11.577280	 0.266910	 89.780300	 78.137330	 179.356600	-37.828710	 73.743310	 38.050830	-18.238330	-24.659740	 39.712610	-42.577450	-29.805410	-5.424429	 6.437017	 35.671460	-0.771858	 2.830251	 35.756010	-7.813440	-2.350882	 35.473990	 5.254307
 2.195361	 6.672639	-0.941201	-76.667790	-1.922682	-0.793696	 9.945210	 30.883870	 177.241200	-1.391013	-11.278130	 1.940226	 5.440710	 69.977540	 1.285027	-2.119617	 50.771530	-0.613974	 1.713656	-30.959780	 177.642600	 7.091519	-43.581230	 7.508235	 6.411202	 85.185940	 1.564651	 2.395051	 25.651580	-0.058189	-25.274030	 2.636449	 1.310840	-1.313914	-1.873942	 0.612187	 0.213779	-4.024969	 0.021600	-91.776900	 78.515630	 178.533100	 38.232800	 64.030910	-51.665890	 9.763396	-23.959860	-45.616890	 34.989090	-21.687970	 6.506248	-3.812334	 37.924440	-2.927599	-2.450526	 36.184240	 0.754587	-1.378229	 35.397820	-2.634230	 0.096829	 4.510119	-3.100331	 1.196240	-10.912770	 0.849535	 89.785730	 78.338230	 179.364600	-35.249160	 74.128680	 34.673030	-19.067170	-23.878970	 38.101240	-44.132560	-24.772670	-3.212055	 6.437017	 35.671460	-0.771858	 2.830251	 35.756010	-7.813440	-2.350882	 35.473990	 5.254307
 2.110355	 6.667089	-0.933396	-75.793110	-2.415808	-1.494017	 7.506301	 19.990530	 176.313200	-0.867618	-35.809280	 1.902201	 3.124886	 64.074440	 0.370930	-2.180048	 47.900330	-0.512098	 1.249651	-28.104420	 177.620900	 7.292980	-46.655030	 7.841168	 6.087109	 84.864850	 1.304326	 2.405346	 21.052050	-0.152147	-30.678760	 2.275463	 1.908877	-1.229292	-1.719325	 0.735567	 0.364953	-3.608405	 0.035554	-91.762850	 78.727070	 178.493700	 37.870510	 66.616580	-48.470410	 10.266810	-22.927270	-42.760420	 36.302250	-15.702700	 3.190636	-3.812334	 37.924440	-2.927599	-2.450526	 36.184240	 0.754587	-1.378229	 35.397820	-2.634230	 0.233954	 4.279121	-3.416197	 1.361840	-9.812594	 1.061447	 89.780040	 78.128680	 179.360300	-33.923240	 74.113490	 33.071720	-19.693300	-22.964100	 36.726160	-45.377820	-18.811350	-0.065913	 6.437017	 35.671460	-0.771858	 2.830251	 35.756010	-7.813440	-2.350882	 35.473990	 5.254307
